<?xml version="1.0" encoding="UTF-8"?>
<svg width="3px" height="3px" viewBox="0 0 3 3" version="1.1" xmlns="http://www.w3.org/2000/svg" xmlns:xlink="http://www.w3.org/1999/xlink">
    <!-- Generator: Sketch 54.1 (76490) - https://sketchapp.com -->
    <title>Shape</title>
    <desc>Created with Sketch.</desc>
    <g id="Page-1" stroke="none" stroke-width="1" fill="none" fill-rule="evenodd">
        <g id="Artboard" transform="translate(-9.000000, -10.000000)" fill="#FF0026" fill-rule="nonzero">
            <g id="noun_less_2801782" transform="translate(9.000000, 10.000000)">
                <path d="M1.45675266,0.0151745068 C0.661608498,0.0151745068 0.0151745068,0.661608498 0.0151745068,1.45675266 C0.0151745068,2.25189681 0.661608498,2.8983308 1.45675266,2.8983308 C2.25189681,2.8983308 2.8983308,2.25189681 2.8983308,1.45675266 C2.8983308,0.661608498 2.25189681,0.0151745068 1.45675266,0.0151745068 Z M2.01213961,1.61456753 L0.901365706,1.61456753 C0.813353566,1.61456753 0.743550835,1.5447648 0.743550835,1.45675266 C0.743550835,1.36874052 0.813353566,1.29893778 0.901365706,1.29893778 L2.01517451,1.29893778 C2.10318665,1.29893778 2.17298938,1.36874052 2.17298938,1.45675266 C2.17298938,1.5447648 2.10015175,1.61456753 2.01213961,1.61456753 Z" id="Shape"></path>
            </g>
        </g>
    </g>
</svg>