<?xml version="1.0" encoding="UTF-8"?>
<svg width="96px" height="96px" viewBox="0 0 96 96" version="1.1" xmlns="http://www.w3.org/2000/svg" xmlns:xlink="http://www.w3.org/1999/xlink">
    <!-- Generator: Sketch 54.1 (76490) - https://sketchapp.com -->
    <title>noun_Plus_2801796 (1)</title>
    <desc>Created with Sketch.</desc>
    <g id="Page-1" stroke="none" stroke-width="1" fill="none" fill-rule="evenodd">
        <g id="noun_Plus_2801796-(1)" fill="#FF0026" fill-rule="nonzero">
            <g id="Group">
                <path d="M48,0.5 C21.8,0.5 0.5,21.8 0.5,48 C0.5,74.2 21.8,95.5 48,95.5 C74.2,95.5 95.5,74.2 95.5,48 C95.5,21.8 74.2,0.5 48,0.5 Z M67.6,53.2 L53.2,53.2 L53.2,67.5 C53.2,70.4 50.9,72.7 48,72.7 C45.1,72.7 42.8,70.4 42.8,67.5 L42.8,53.2 L28.4,53.2 C25.5,53.2 23.2,50.9 23.2,48 C23.2,45.1 25.5,42.8 28.4,42.8 L42.7,42.8 L42.7,28.4 C42.7,25.5 45,23.2 47.9,23.2 C50.8,23.2 53.1,25.5 53.1,28.4 L53.1,42.7 L67.4,42.7 C70.3,42.7 72.6,45 72.6,47.9 C72.6,50.8 70.5,53.2 67.6,53.2 Z" id="Shape"></path>
            </g>
        </g>
    </g>
</svg>