<?xml version="1.0" encoding="UTF-8"?>
<svg width="74px" height="74px" viewBox="0 0 74 74" version="1.1" xmlns="http://www.w3.org/2000/svg" xmlns:xlink="http://www.w3.org/1999/xlink">
    <!-- Generator: Sketch 54.1 (76490) - https://sketchapp.com -->
    <title>Path</title>
    <desc>Created with Sketch.</desc>
    <g id="Page-1" stroke="none" stroke-width="1" fill="none" fill-rule="evenodd">
        <g id="noun_Delete_1560851" transform="translate(0.000000, -157.000000)" fill="#FFFFFF" fill-rule="nonzero">
            <g id="noun_Plus_2310577" transform="translate(0.000000, 156.000000)">
                <g id="Group" transform="translate(0.000000, 0.637820)">
                    <path d="M37,0.36218 C34.7908,0.36218 33,2.15308 33,4.36218 L33,33.36228 L4,33.36228 C1.7909,33.36228 0,35.1531 0,37.3623 C0,39.5715 1.7909,41.3623 4,41.3623 L33,41.3623 L33,70.3622 C33,72.5713 34.7908,74.3622 37,74.3622 C39.2092,74.3622 41,72.5713 41,70.3622 L41,41.3623 L70,41.3623 C72.2091,41.3623 74,39.5715 74,37.3623 C74,35.1531 72.2091,33.36228 70,33.36228 L41,33.36228 L41,4.36218 C41,2.15308 39.2092,0.36218 37,0.36218 L37,0.36218 Z" id="Path"></path>
                </g>
            </g>
        </g>
    </g>
</svg>