<?xml version="1.0" encoding="UTF-8"?>
<svg width="88px" height="96px" viewBox="0 0 88 96" version="1.1" xmlns="http://www.w3.org/2000/svg" xmlns:xlink="http://www.w3.org/1999/xlink">
    <!-- Generator: Sketch 54.1 (76490) - https://sketchapp.com -->
    <title>noun_Delete_1560851</title>
    <desc>Created with Sketch.</desc>
    <g id="Page-1" stroke="none" stroke-width="1" fill="none" fill-rule="evenodd">
        <g id="noun_Delete_1560851" fill="#FF0026" fill-rule="nonzero">
            <path d="M0,32 C8.8817842e-16,36.418278 3.581722,40 8,40 L8,80 C8,88.836556 15.163444,96 24,96 L64,96 C72.836556,96 80,88.836556 80,80 L80,40 C84.418278,40 88,36.418278 88,32 L88,24 C88,19.581722 84.418278,16 80,16 L64,16 L64,8 C64,3.581722 60.418278,4.4408921e-16 56,0 L32,0 C27.581722,-2.22044605e-16 24,3.581722 24,8 L24,16 L8,16 C3.581722,16 8.8817842e-16,19.581722 0,24 L0,32 Z M72,80 C72,84.418278 68.418278,88 64,88 L24,88 C19.581722,88 16,84.418278 16,80 L16,40 L72,40 L72,80 Z M32,8 L56,8 L56,16 L32,16 L32,8 Z M8,24 L80,24 L80,32 L8,32 L8,24 Z" id="Shape"></path>
            <path d="M28,80 C30.209139,80 32,78.209139 32,76 L32,52 C32,49.790861 30.209139,48 28,48 C25.790861,48 24,49.790861 24,52 L24,76 C24,78.209139 25.790861,80 28,80 Z" id="Path"></path>
            <path d="M44,80 C46.209139,80 48,78.209139 48,76 L48,52 C48,49.790861 46.209139,48 44,48 C41.790861,48 40,49.790861 40,52 L40,76 C40,78.209139 41.790861,80 44,80 Z" id="Path"></path>
            <path d="M60,80 C62.209139,80 64,78.209139 64,76 L64,52 C64,49.790861 62.209139,48 60,48 C57.790861,48 56,49.790861 56,52 L56,76 C56,78.209139 57.790861,80 60,80 Z" id="Path"></path>
        </g>
    </g>
</svg>